<svg width="110" height="122" viewBox="0 0 110 122" fill="none" xmlns="http://www.w3.org/2000/svg">
<path d="M42.4372 73.4859C42.6543 73.5791 42.8877 73.6287 43.1241 73.6317C43.3604 73.6347 43.595 73.591 43.8144 73.5033C44.0338 73.4155 44.2337 73.2854 44.4027 73.1203C44.5717 72.9552 44.7064 72.7584 44.7991 72.5412L59.1746 39.0247C59.2676 38.8076 59.3169 38.5743 59.3196 38.3382C59.3223 38.102 59.2785 37.8676 59.1906 37.6484C59.1026 37.4292 58.9723 37.2294 58.8071 37.0605C58.6418 36.8915 58.4449 36.7568 58.2276 36.6639C58.0102 36.571 57.7767 36.5218 57.5403 36.519C57.3039 36.5163 57.0692 36.5601 56.8498 36.648C56.6303 36.7358 56.4303 36.866 56.2612 37.031C56.0922 37.1961 55.9573 37.3928 55.8643 37.61L41.4916 71.1265C41.3038 71.5646 41.298 72.0593 41.4753 72.5018C41.6526 72.9443 41.9986 73.2982 42.4372 73.4859Z" fill="white"/>
<path d="M46.4614 38.3835C46.6785 38.4768 46.912 38.5263 47.1483 38.5293C47.3846 38.5323 47.6192 38.4886 47.8386 38.4009C48.058 38.3131 48.258 38.183 48.4269 38.0179C48.5959 37.8528 48.7306 37.656 48.8233 37.4388L53.9932 25.403C54.181 24.9645 54.1867 24.4694 54.0091 24.0267C53.8315 23.5839 53.4851 23.2298 53.0461 23.0422C52.6072 22.8546 52.1115 22.8488 51.6683 23.0263C51.2251 23.2037 50.8706 23.5497 50.6828 23.9883L45.5201 36.0241C45.3321 36.4617 45.3256 36.9559 45.5021 37.3983C45.6786 37.8407 46.0236 38.195 46.4614 38.3835Z" fill="white"/>
<path d="M30.7934 74.9064C31.0105 74.9997 31.244 75.0493 31.4803 75.0522C31.7166 75.0552 31.9512 75.0116 32.1706 74.9238C32.39 74.8361 32.59 74.7059 32.7589 74.5408C32.9279 74.3758 33.0626 74.179 33.1553 73.9618L45.418 45.3784C45.6058 44.9399 45.6115 44.4448 45.4339 44.002C45.2563 43.5593 44.9099 43.2051 44.4709 43.0175C44.0319 42.8299 43.5363 42.8242 43.0931 43.0016C42.6499 43.179 42.2954 43.5251 42.1076 43.9636L29.8449 72.547C29.7521 72.7641 29.7029 72.9974 29.7003 73.2335C29.6977 73.4696 29.7417 73.7039 29.8298 73.9231C29.9179 74.1422 30.0483 74.3418 30.2137 74.5105C30.379 74.6793 30.576 74.8138 30.7934 74.9064Z" fill="white"/>
<path d="M78.202 0H11.0494C8.12008 0.00304421 5.31162 1.16675 3.24016 3.2358C1.1687 5.30485 0.00342894 8.11027 0 11.0365V110.963C0.00342894 113.89 1.1687 116.695 3.24016 118.764C5.31162 120.833 8.12008 121.997 11.0494 122H78.202C81.132 121.998 83.9416 120.835 86.0139 118.766C88.0863 116.697 89.2522 113.89 89.2556 110.963V11.0365C89.2522 8.10952 88.0863 5.30345 86.0139 3.23428C83.9416 1.1651 81.132 0.00190236 78.202 0ZM78.202 118.407H11.0494C9.07415 118.405 7.18046 117.62 5.78363 116.225C4.38681 114.83 3.60087 112.938 3.5982 110.965V11.0365C3.60087 9.06335 4.38681 7.17177 5.78363 5.77665C7.18046 4.38153 9.07415 3.59678 11.0494 3.59449H78.202C80.1779 3.59563 82.0727 4.37989 83.4705 5.77513C84.8682 7.17037 85.6548 9.0626 85.6574 11.0365V95.5071H18.0284C17.5513 95.5071 17.0937 95.6965 16.7563 96.0335C16.4189 96.3706 16.2293 96.8277 16.2293 97.3044C16.2293 97.7811 16.4189 98.2382 16.7563 98.5752C17.0937 98.9123 17.5513 99.1016 18.0284 99.1016H85.6574V110.963C85.6548 112.937 84.8682 114.83 83.4705 116.225C82.0727 117.62 80.1779 118.404 78.202 118.406V118.407Z" fill="white"/>
<path d="M11.1026 95.5072H10.4362C9.95903 95.5072 9.50143 95.6966 9.16403 96.0336C8.82663 96.3707 8.63708 96.8278 8.63708 97.3044C8.63708 97.7811 8.82663 98.2382 9.16403 98.5753C9.50143 98.9123 9.95903 99.1017 10.4362 99.1017H11.1026C11.5797 99.1017 12.0373 98.9123 12.3747 98.5753C12.7121 98.2382 12.9017 97.7811 12.9017 97.3044C12.9017 96.8278 12.7121 96.3707 12.3747 96.0336C12.0373 95.6966 11.5797 95.5072 11.1026 95.5072Z" fill="white"/>
<path d="M108.201 33.8027C108.678 33.8027 109.136 33.6133 109.473 33.2763C109.81 32.9392 110 32.4821 110 32.0054V25.9537C110 24.3808 109.374 22.8722 108.261 21.76C107.148 20.6477 105.638 20.0228 104.063 20.0228C102.488 20.0228 100.978 20.6477 99.8648 21.76C98.7514 22.8722 98.1259 24.3808 98.1259 25.9537V100.18C98.1263 100.387 98.1618 100.593 98.231 100.788L102.369 112.291C102.495 112.638 102.725 112.939 103.028 113.151C103.331 113.364 103.692 113.478 104.062 113.478C104.432 113.478 104.794 113.364 105.097 113.151C105.4 112.939 105.63 112.638 105.756 112.291L109.893 100.788C109.963 100.593 109.998 100.387 109.999 100.18V39.0736C109.999 38.597 109.809 38.1398 109.472 37.8028C109.134 37.4657 108.677 37.2764 108.199 37.2764C107.722 37.2764 107.265 37.4657 106.927 37.8028C106.59 38.1398 106.4 38.597 106.4 39.0736V99.8666L104.062 106.368L101.723 99.8666V25.9537C101.723 25.3341 101.969 24.7398 102.408 24.3016C102.846 23.8635 103.441 23.6173 104.062 23.6173C104.682 23.6173 105.277 23.8635 105.715 24.3016C106.154 24.7398 106.4 25.3341 106.4 25.9537V32.0054C106.4 32.2416 106.447 32.4754 106.537 32.6935C106.628 32.9117 106.761 33.1099 106.928 33.2768C107.095 33.4437 107.294 33.576 107.512 33.6663C107.73 33.7565 107.965 33.8029 108.201 33.8027Z" fill="white"/>
<path d="M44.186 106.171C43.6101 106.172 43.0473 106.342 42.5687 106.662C42.0901 106.982 41.7171 107.436 41.497 107.968C41.2768 108.499 41.2193 109.084 41.3318 109.648C41.4444 110.212 41.7218 110.731 42.129 111.137C42.5363 111.544 43.0551 111.821 43.6199 111.933C44.1847 112.045 44.77 111.987 45.302 111.767C45.8339 111.547 46.2886 111.174 46.6085 110.696C46.9283 110.217 47.0991 109.655 47.0991 109.08C47.0979 108.309 46.7906 107.569 46.2445 107.024C45.6984 106.479 44.9581 106.172 44.186 106.171Z" fill="white"/>
</svg>
