<svg width="144" height="96" viewBox="0 0 144 96" fill="none" xmlns="http://www.w3.org/2000/svg">
<path d="M34.1002 91.04H33.1091C32.5465 91.04 32.007 91.2621 31.6092 91.6575C31.2113 92.0528 30.9879 92.589 30.9879 93.1481C30.9879 93.7072 31.2113 94.2434 31.6092 94.6387C32.007 95.0341 32.5465 95.2562 33.1091 95.2562H34.1002C34.6628 95.2562 35.2024 95.0341 35.6002 94.6387C35.998 94.2434 36.2215 93.7072 36.2215 93.1481C36.2215 92.589 35.998 92.0528 35.6002 91.6575C35.2024 91.2621 34.6628 91.04 34.1002 91.04Z" fill="white"/>
<path d="M141.879 75.0188H12.8788V12.9048C12.8824 10.6695 13.7775 8.5268 15.368 6.94621C16.9585 5.36562 19.1146 4.47607 21.3639 4.4725H122.633C124.882 4.47607 127.038 5.36562 128.629 6.94621C130.219 8.5268 131.114 10.6695 131.118 12.9048V68.1027C131.118 68.6618 131.341 69.1979 131.739 69.5933C132.137 69.9886 132.677 70.2107 133.239 70.2107C133.802 70.2107 134.341 69.9886 134.739 69.5933C135.137 69.1979 135.36 68.6618 135.36 68.1027V12.9048C135.355 9.55173 134.013 6.3374 131.627 3.96641C129.241 1.59543 126.007 0.261255 122.633 0.256348H21.3673C17.9932 0.261255 14.7588 1.59543 12.3729 3.96641C9.98707 6.3374 8.64453 9.55173 8.63959 12.9048V75.0188H2.12129C1.55869 75.0188 1.01913 75.2409 0.621313 75.6363C0.223494 76.0316 0 76.5678 0 77.1269C0.0053901 81.9335 1.92916 86.5417 5.34923 89.9404C8.76931 93.3392 13.4064 95.251 18.2431 95.2563H23.918C24.4806 95.2563 25.0201 95.0342 25.418 94.6389C25.8158 94.2436 26.0393 93.7074 26.0393 93.1483C26.0393 92.5892 25.8158 92.053 25.418 91.6576C25.0201 91.2623 24.4806 91.0402 23.918 91.0402H18.2431C14.8986 91.0362 11.6657 89.8442 9.12796 87.6794C6.59018 85.5146 4.91466 82.5196 4.4038 79.235H139.596C139.085 82.5195 137.409 85.5143 134.872 87.679C132.334 89.8437 129.101 91.0358 125.757 91.0402H42.7262C42.1636 91.0402 41.624 91.2623 41.2262 91.6576C40.8284 92.053 40.6049 92.5892 40.6049 93.1483C40.6049 93.7074 40.8284 94.2436 41.2262 94.6389C41.624 95.0342 42.1636 95.2563 42.7262 95.2563H125.757C130.594 95.251 135.231 93.3392 138.651 89.9404C142.071 86.5417 143.995 81.9335 144 77.1269C144 76.5678 143.777 76.0316 143.379 75.6363C142.981 75.2409 142.441 75.0188 141.879 75.0188Z" fill="white"/>
<path d="M82.4656 87.2456C83.0282 87.2456 83.5678 87.0235 83.9656 86.6281C84.3634 86.2328 84.5869 85.6966 84.5869 85.1375C84.5869 84.5784 84.3634 84.0422 83.9656 83.6469C83.5678 83.2515 83.0282 83.0294 82.4656 83.0294H61.5344C60.9718 83.0294 60.4322 83.2515 60.0344 83.6469C59.6366 84.0422 59.4131 84.5784 59.4131 85.1375C59.4131 85.6966 59.6366 86.2328 60.0344 86.6281C60.4322 87.0235 60.9718 87.2456 61.5344 87.2456H82.4656Z" fill="white"/>
<path d="M66.1588 68.376C66.415 68.4854 66.6903 68.5436 66.9691 68.5471C67.2478 68.5506 67.5246 68.4995 67.7834 68.3965C68.0423 68.2936 68.2781 68.141 68.4775 67.9473C68.6769 67.7537 68.8359 67.5228 68.9454 67.268L85.8987 27.9532C86.1202 27.4389 86.1269 26.8582 85.9175 26.3388C85.7081 25.8195 85.2997 25.4041 84.7821 25.1841C84.2645 24.964 83.6801 24.9573 83.1575 25.1654C82.635 25.3735 82.217 25.7794 81.9955 26.2938L65.0422 65.6068C64.9323 65.8615 64.8741 66.1352 64.8708 66.4122C64.8675 66.6893 64.9191 66.9643 65.0229 67.2215C65.1266 67.4787 65.2803 67.713 65.4752 67.9111C65.6701 68.1092 65.9024 68.2672 66.1588 68.376Z" fill="white"/>
<path d="M70.1027 29.0611C70.3588 29.1705 70.6342 29.2287 70.9129 29.2322C71.1917 29.2357 71.4684 29.1846 71.7273 29.0816C71.9861 28.9787 72.222 28.8261 72.4214 28.6324C72.6208 28.4387 72.7798 28.2079 72.8892 27.9531L79.7792 11.9756C80.0006 11.4612 80.0074 10.8805 79.798 10.3612C79.5886 9.84185 79.1801 9.42648 78.6625 9.20642C78.1449 8.98636 77.5606 8.97964 77.038 9.18775C76.5154 9.39585 76.0974 9.80173 75.876 10.3161L68.9861 26.2936C68.8765 26.5482 68.8184 26.8217 68.8153 27.0986C68.8121 27.3755 68.8638 27.6502 68.9675 27.9072C69.0712 28.1642 69.2248 28.3984 69.4196 28.5964C69.6144 28.7944 69.8465 28.9523 70.1027 29.0611Z" fill="white"/>
<path d="M65.6565 34.0158L51.3131 67.2728C51.2035 67.5275 51.1454 67.8012 51.1422 68.0782C51.139 68.3552 51.1907 68.6301 51.2944 68.8872C51.5038 69.4065 51.9122 69.8219 52.4298 70.042C52.9474 70.262 53.5317 70.2688 54.0543 70.0606C54.5769 69.8525 54.9949 69.4467 55.2163 68.9323L69.5579 35.6753C69.7794 35.1609 69.7861 34.5802 69.5767 34.0609C69.3673 33.5416 68.9589 33.1262 68.4413 32.9061C67.9237 32.6861 67.3393 32.6793 66.8168 32.8875C66.2942 33.0956 65.8762 33.5014 65.6548 34.0158H65.6565Z" fill="white"/>
</svg>
