<svg width="62" height="122" viewBox="0 0 62 122" fill="none" xmlns="http://www.w3.org/2000/svg">
<path d="M1.79933 74.4175C2.27654 74.4175 2.73421 74.2282 3.07165 73.8911C3.40909 73.554 3.59866 73.0969 3.59866 72.6202V71.9013C3.59866 71.4246 3.40909 70.9675 3.07165 70.6304C2.73421 70.2934 2.27654 70.104 1.79933 70.104C1.32212 70.104 0.864449 70.2934 0.52701 70.6304C0.18957 70.9675 0 71.4246 0 71.9013V72.6202C0 73.0969 0.18957 73.554 0.52701 73.8911C0.864449 74.2282 1.32212 74.4175 1.79933 74.4175Z" fill="white"/>
<path d="M29.9595 48.3581C30.4367 48.3581 30.8944 48.1688 31.2318 47.8317C31.5693 47.4947 31.7588 47.0375 31.7588 46.5608C31.7588 46.0842 31.5693 45.627 31.2318 45.29C30.8944 44.9529 30.4367 44.7635 29.9595 44.7635C28.3853 44.7655 26.8761 45.3909 25.763 46.5028C24.6498 47.6147 24.0236 49.1222 24.0217 50.6946V70.3629C24.0217 71.9359 24.6473 73.4445 25.7609 74.5568C26.8744 75.6691 28.3847 76.2939 29.9595 76.2939C31.5343 76.2939 33.0446 75.6691 34.1582 74.5568C35.2717 73.4445 35.8973 71.9359 35.8973 70.3629V52.1325C35.8973 51.6558 35.7077 51.1987 35.3703 50.8616C35.0328 50.5245 34.5752 50.3352 34.098 50.3352C33.6208 50.3352 33.1631 50.5245 32.8257 50.8616C32.4882 51.1987 32.2986 51.6558 32.2986 52.1325V70.3629C32.2986 70.9825 32.0522 71.5768 31.6135 72.015C31.1749 72.4532 30.5799 72.6993 29.9595 72.6993C29.3391 72.6993 28.7442 72.4532 28.3055 72.015C27.8668 71.5768 27.6204 70.9825 27.6204 70.3629V50.6946C27.6211 50.0752 27.8678 49.4813 28.3063 49.0433C28.7448 48.6053 29.3394 48.3589 29.9595 48.3581Z" fill="white"/>
<path d="M34.3643 20.9688C36.9078 18.7516 41.3975 18.0629 47.7096 18.9241C55.3632 19.9637 58.8812 17.0276 60.2933 15.1858C61.2051 13.9767 61.7759 12.5458 61.9462 11.0417C62.1166 9.53762 61.8804 8.01543 61.2621 6.63349C60.3735 4.7643 59.0024 3.16533 57.2899 2.00108C55.5773 0.836831 53.5852 0.149347 51.5184 0.00935996C51.0479 -0.0387725 50.5774 0.100031 50.2086 0.395745C49.8398 0.691459 49.6025 1.12031 49.5478 1.58952C49.4931 2.05873 49.6256 2.53058 49.9165 2.90299C50.2074 3.2754 50.6334 3.51843 51.1024 3.57952C52.536 3.65212 53.9248 4.10283 55.1273 4.88579C56.3299 5.66874 57.3033 6.75597 57.9485 8.03682C58.3145 8.83506 58.4598 9.71663 58.3694 10.59C58.2791 11.4633 57.9563 12.2965 57.4346 13.0031C55.8411 15.0865 52.4771 15.9507 48.1961 15.3641C40.8088 14.3576 35.359 15.3324 31.9993 18.2627C30.8573 19.3029 29.9348 20.5603 29.2857 21.9612C28.6366 23.3621 28.274 24.8783 28.2192 26.421C27.0081 26.79 25.9471 27.5367 25.1917 28.5518C24.4364 29.5669 24.0264 30.7969 24.0218 32.0617V33.6232C17.5981 33.7975 11.4954 36.4664 7.01008 41.063C2.52473 45.6595 0.0099908 51.8216 0 58.2404V63.8724C0 64.3491 0.18957 64.8063 0.52701 65.1433C0.864449 65.4804 1.32212 65.6697 1.79933 65.6697C2.27654 65.6697 2.73421 65.4804 3.07165 65.1433C3.40909 64.8063 3.59866 64.3491 3.59866 63.8724V58.2404C3.60475 52.6576 5.82773 47.3052 9.77985 43.3575C13.732 39.4098 19.0905 37.1894 24.6796 37.1833H35.2395C40.8284 37.1897 46.1865 39.4104 50.1383 43.358C54.0901 47.3056 56.3129 52.6578 56.319 58.2404V105.294C56.3152 108.77 54.9312 112.102 52.4706 114.56C50.0101 117.018 46.6739 118.401 43.194 118.405H16.7251C13.2452 118.401 9.909 117.018 7.44845 114.56C4.98789 112.102 3.60391 108.77 3.6001 105.294V78.6103C3.6001 78.1336 3.41053 77.6765 3.07309 77.3394C2.73565 77.0024 2.27798 76.813 1.80077 76.813C1.32356 76.813 0.865888 77.0024 0.528448 77.3394C0.191009 77.6765 0.00143867 78.1336 0.00143867 78.6103V105.294C0.00601071 109.723 1.76939 113.969 4.90465 117.101C8.03992 120.233 12.291 121.995 16.7251 122H43.194C47.6281 121.995 51.8792 120.233 55.0144 117.101C58.1497 113.969 59.9131 109.723 59.9176 105.294V58.2404C59.908 51.8216 57.3937 45.6594 52.9086 41.0625C48.4235 36.4657 42.321 33.7965 35.8973 33.6217V32.0602C35.8928 30.819 35.4977 29.6105 34.768 28.6058C34.0382 27.601 33.0108 26.8508 31.8308 26.4613C31.9167 24.3683 32.8274 22.394 34.3643 20.9688ZM32.2987 33.5887H27.6204V32.0602C27.6204 31.4406 27.8669 30.8463 28.3055 30.4081C28.7442 29.9699 29.3392 29.7238 29.9595 29.7238C30.5799 29.7238 31.1749 29.9699 31.6136 30.4081C32.0522 30.8463 32.2987 31.4406 32.2987 32.0602V33.5887Z" fill="white"/>
</svg>
