<svg width="136" height="122" viewBox="0 0 136 122" fill="none" xmlns="http://www.w3.org/2000/svg">
<path d="M65.6889 70.4621C65.9308 70.5656 66.1908 70.6206 66.4541 70.6239C66.7174 70.6272 66.9788 70.5789 67.2232 70.4815C67.4677 70.3842 67.6905 70.2399 67.8788 70.0568C68.0671 69.8737 68.2172 69.6554 68.3206 69.4145L84.3321 32.2436C84.5413 31.7573 84.5476 31.2082 84.3499 30.7172C84.1521 30.2262 83.7663 29.8334 83.2775 29.6254C82.7887 29.4173 82.2368 29.411 81.7432 29.6077C81.2497 29.8045 80.8549 30.1883 80.6458 30.6746L64.6343 67.8454C64.5308 68.0861 64.476 68.3448 64.473 68.6066C64.47 68.8683 64.5188 69.1281 64.6168 69.3711C64.7147 69.6141 64.8598 69.8355 65.0437 70.0227C65.2277 70.2099 65.4469 70.3592 65.6889 70.4621V70.4621Z" fill="white"/>
<path d="M68.9312 34.4074C69.1731 34.5109 69.4331 34.5659 69.6964 34.5692C69.9597 34.5725 70.221 34.5241 70.4655 34.4268C70.71 34.3295 70.9327 34.1852 71.121 34.0021C71.3094 33.819 71.4595 33.6007 71.5629 33.3598L78.5509 17.1367C78.76 16.6504 78.7664 16.1013 78.5686 15.6103C78.3709 15.1193 77.9851 14.7265 77.4963 14.5184C77.0075 14.3104 76.4555 14.304 75.962 14.5008C75.4685 14.6976 75.0737 15.0813 74.8646 15.5677L67.8766 31.7907C67.7731 32.0314 67.7183 32.2901 67.7153 32.5518C67.7123 32.8136 67.7611 33.0734 67.859 33.3164C67.957 33.5594 68.1021 33.7808 68.286 33.968C68.47 34.1552 68.6892 34.3045 68.9312 34.4074V34.4074Z" fill="white"/>
<path d="M52.7226 72.0376C52.9645 72.1411 53.2245 72.1961 53.4878 72.1994C53.7511 72.2027 54.0124 72.1543 54.2569 72.057C54.5014 71.9597 54.7241 71.8154 54.9124 71.6323C55.1008 71.4492 55.2509 71.2309 55.3543 70.99L68.0337 41.5464C68.2428 41.06 68.2492 40.511 68.0514 40.0199C67.8536 39.5289 67.4679 39.1362 66.9791 38.9281C66.4902 38.72 65.9383 38.7137 65.4448 38.9105C64.9512 39.1072 64.5565 39.491 64.3473 39.9773L51.668 69.4209C51.5645 69.6616 51.5097 69.9203 51.5067 70.182C51.5037 70.4438 51.5525 70.7036 51.6505 70.9466C51.7484 71.1896 51.8935 71.411 52.0774 71.5982C52.2614 71.7854 52.4806 71.9347 52.7226 72.0376V72.0376Z" fill="white"/>
<path d="M124.318 0H11.6825C8.58579 0.00463822 5.61726 1.23044 3.42743 3.40879C1.2376 5.58713 0.00508692 8.54033 0 11.6212V89.5156C0.00508692 92.5964 1.2376 95.5496 3.42743 97.728C5.61726 99.9063 8.58579 101.132 11.6825 101.137H54.9664L52.7226 110.334C50.3685 110.483 48.1596 111.517 46.5441 113.227C44.9287 114.937 44.0278 117.194 44.0244 119.541C44.0248 120.193 44.2851 120.818 44.7482 121.279C45.2112 121.74 45.8392 121.999 46.4943 122H89.5041C90.1592 121.999 90.7872 121.74 91.2502 121.279C91.7133 120.818 91.9736 120.193 91.974 119.541C91.9706 117.093 90.9917 114.746 89.2518 113.015C87.512 111.284 85.1532 110.309 82.6924 110.305H56.8545L59.0887 101.137H76.9113L78.1422 106.19C78.2042 106.444 78.316 106.684 78.4711 106.896C78.6262 107.107 78.8217 107.286 79.0463 107.422C79.271 107.559 79.5204 107.65 79.7804 107.69C80.0404 107.73 80.3059 107.719 80.5616 107.658C80.8173 107.596 81.0583 107.485 81.2709 107.331C81.4834 107.176 81.6633 106.982 81.8003 106.758C81.9373 106.535 82.0287 106.287 82.0693 106.028C82.1099 105.769 82.0989 105.505 82.0369 105.251L81.0336 101.135H124.318C127.414 101.131 130.383 99.9047 132.573 97.7264C134.762 95.548 135.995 92.5948 136 89.514V11.6212C135.995 8.54033 134.762 5.58713 132.573 3.40879C130.383 1.23044 127.414 0.00463822 124.318 0V0ZM87.7379 118.014H48.2621C48.593 116.938 49.2614 115.997 50.1694 115.327C51.0774 114.657 52.1772 114.294 53.3076 114.292H82.6924C83.8228 114.294 84.9226 114.657 85.8306 115.327C86.7386 115.997 87.407 116.938 87.7379 118.014V118.014ZM124.318 97.1503H11.6825C9.6477 97.1482 7.69686 96.3432 6.25792 94.9119C4.81897 93.4806 4.00943 91.5399 4.00688 89.5156V11.6212C4.00943 9.59681 4.81897 7.6561 6.25792 6.22481C7.69686 4.79352 9.6477 3.98852 11.6825 3.98641H124.318C126.352 3.98852 128.303 4.79352 129.742 6.22481C131.181 7.6561 131.991 9.59681 131.993 11.6212V81.2047H20.121C19.5896 81.2047 19.08 81.4147 18.7043 81.7885C18.3286 82.1623 18.1175 82.6693 18.1175 83.1979C18.1175 83.7265 18.3286 84.2335 18.7043 84.6073C19.08 84.9811 19.5896 85.1911 20.121 85.1911H131.993V89.5156C131.991 91.5399 131.181 93.4806 129.742 94.9119C128.303 96.3432 126.352 97.1482 124.318 97.1503V97.1503Z" fill="white"/>
<path d="M12.104 81.2047H11.6232C11.0918 81.2047 10.5823 81.4147 10.2065 81.7885C9.83082 82.1623 9.61974 82.6693 9.61974 83.1979C9.61974 83.7265 9.83082 84.2335 10.2065 84.6073C10.5823 84.9811 11.0918 85.1911 11.6232 85.1911H12.104C12.6354 85.1911 13.1449 84.9811 13.5207 84.6073C13.8964 84.2335 14.1074 83.7265 14.1074 83.1979C14.1074 82.6693 13.8964 82.1623 13.5207 81.7885C13.1449 81.4147 12.6354 81.2047 12.104 81.2047V81.2047Z" fill="white"/>
<path d="M68 88.267C67.3727 88.267 66.7596 88.452 66.238 88.7987C65.7164 89.1454 65.3099 89.6381 65.0697 90.2146C64.8296 90.7912 64.7667 91.4256 64.889 92.0377C65.0112 92.6497 65.3132 93.212 65.7566 93.6534C66.2 94.0948 66.765 94.3955 67.3802 94.5174C67.9954 94.6394 68.6331 94.5771 69.2127 94.3385C69.7923 94.0999 70.2878 93.6957 70.6365 93.1769C70.9852 92.6582 71.1715 92.0483 71.1718 91.4242C71.171 90.5874 70.8366 89.7851 70.242 89.1932C69.6474 88.6013 68.8411 88.2682 68 88.267V88.267Z" fill="white"/>
</svg>
