<svg width="119" height="94" viewBox="0 0 119 94" fill="none" xmlns="http://www.w3.org/2000/svg">
<path d="M116.73 10.1622H79.8676V8.02276C79.8676 3.61024 76.2615 0 71.8541 0H47.413C43.0056 0 39.3996 3.61024 39.3996 8.02276V10.1622H2.27048C1.06846 10.1622 0 11.2319 0 12.4353V91.7269C0 92.9303 1.06846 94 2.27048 94H116.73C117.932 94 119 92.9303 119 91.7269V12.4353C119 11.2319 117.932 10.1622 116.73 10.1622ZM43.807 7.88905C43.807 5.88336 45.4097 4.41252 47.2795 4.41252H71.7205C73.7239 4.41252 75.193 6.01707 75.193 7.88905V10.0285H43.807V7.88905ZM4.67452 14.7084H114.459V20.1906H4.67452V14.7084ZM4.67452 24.7368H114.593V37.9744H114.459L73.3232 52.1479C72.9226 51.4794 72.5219 50.8108 71.8541 50.1423C70.2514 48.5377 68.1145 47.6017 65.844 47.6017H53.2896C50.6184 47.6017 48.0808 48.8051 46.4781 50.9445C46.211 51.212 46.0774 51.6131 45.8103 52.0142L4.67452 37.9744V24.7368ZM69.8507 56.1593C69.8507 58.2987 68.1145 60.1707 65.844 60.1707H53.2896C51.1526 60.1707 49.2828 58.4324 49.2828 56.1593C49.2828 55.357 49.5499 54.5548 50.0842 53.7525C50.8855 52.6828 51.954 52.1479 53.2896 52.1479H65.844C66.9125 52.1479 67.8474 52.5491 68.6487 53.3514C69.4501 54.1536 69.8507 55.0896 69.8507 56.1593ZM114.726 89.4538H4.67452V42.7881L44.8754 56.5605C45.009 61.1067 48.7486 64.7169 53.4231 64.7169H65.9776C70.5185 64.7169 74.2581 61.1067 74.5253 56.5605L114.726 42.7881V89.4538Z" fill="white"/>
</svg>
